<svg xmlns="http://www.w3.org/2000/svg" xmlns:xlink="http://www.w3.org/1999/xlink" width="500" zoomAndPan="magnify" viewBox="0 0 375 72" height="96" preserveAspectRatio="xMidYMid meet" version="1.0"><defs><g/><clipPath id="7f4ecc5f28"><path d="M 7.199219 7.199219 L 64.949219 7.199219 L 64.949219 64.949219 L 7.199219 64.949219 Z M 7.199219 7.199219 " clip-rule="nonzero"/></clipPath></defs><path fill="#ffffff" d="M 35.992188 35.902344 L 26.140625 52.960938 L 35.992188 43.03125 L 45.839844 52.960938 L 35.992188 35.902344 " fill-opacity="1" fill-rule="nonzero"/><path fill="#daa520" d="M 21.136719 52.960938 L 35.992188 27.234375 L 17.675781 45.699219 Z M 21.136719 52.960938 " fill-opacity="1" fill-rule="nonzero"/><path fill="#ffffff" d="M 17.675781 45.699219 L 35.992188 27.234375 L 50.84375 52.960938 L 35.992188 13.972656 L 17.675781 45.699219 " fill-opacity="1" fill-rule="nonzero"/><path fill="#daa520" d="M 35.992188 13.972656 L 50.84375 52.960938 L 54.308594 45.699219 Z M 35.992188 13.972656 " fill-opacity="1" fill-rule="nonzero"/><g clip-path="url(#7f4ecc5f28)"><path fill="#ffffff" d="M 35.992188 59.90625 C 22.785156 59.90625 12.078125 49.199219 12.078125 35.992188 C 12.078125 22.785156 22.785156 12.078125 35.992188 12.078125 C 49.199219 12.078125 59.90625 22.785156 59.90625 35.992188 C 59.90625 49.199219 49.199219 59.90625 35.992188 59.90625 Z M 35.992188 7.195312 C 20.089844 7.195312 7.195312 20.089844 7.195312 35.992188 C 7.195312 51.894531 20.089844 64.789062 35.992188 64.789062 C 51.894531 64.789062 64.789062 51.894531 64.789062 35.992188 C 64.789062 20.089844 51.894531 7.195312 35.992188 7.195312 " fill-opacity="1" fill-rule="nonzero"/></g><g fill="#ffffff" fill-opacity="1"><g transform="translate(76.860063, 44.625)"><g><path d="M 8.300781 0.382812 C 12.746094 0.382812 15.378906 -1.710938 15.378906 -5.238281 C 15.378906 -8.199219 13.460938 -9.9375 9.121094 -10.90625 C 6.820312 -11.417969 5.976562 -11.980469 5.976562 -12.898438 C 5.976562 -13.769531 6.742188 -14.304688 7.945312 -14.304688 C 9.375 -14.304688 10.191406 -13.5625 10.191406 -12.210938 L 15.046875 -12.210938 C 15.046875 -15.890625 12.234375 -18.265625 7.84375 -18.265625 C 3.628906 -18.265625 1.023438 -16.171875 1.023438 -12.796875 C 1.023438 -9.785156 2.988281 -7.917969 7.023438 -7.152344 C 9.195312 -6.71875 10.242188 -6.054688 10.242188 -5.03125 C 10.242188 -4.136719 9.476562 -3.628906 8.226562 -3.628906 C 6.742188 -3.628906 5.875 -4.417969 5.875 -5.796875 L 0.894531 -5.796875 C 0.894531 -1.941406 3.652344 0.382812 8.300781 0.382812 Z M 8.300781 0.382812 "/></g></g></g><g fill="#ffffff" fill-opacity="1"><g transform="translate(95.220829, 44.625)"><g><path d="M 10.601562 0.382812 C 16.296875 0.382812 20.332031 -3.472656 20.332031 -8.941406 C 20.332031 -14.40625 16.296875 -18.265625 10.601562 -18.265625 C 4.90625 -18.265625 0.867188 -14.40625 0.867188 -8.941406 C 0.867188 -3.472656 4.90625 0.382812 10.601562 0.382812 Z M 6.105469 -8.941406 C 6.105469 -11.621094 7.96875 -13.488281 10.601562 -13.488281 C 13.257812 -13.488281 15.097656 -11.621094 15.097656 -8.941406 C 15.097656 -6.257812 13.257812 -4.394531 10.601562 -4.394531 C 7.96875 -4.394531 6.105469 -6.257812 6.105469 -8.941406 Z M 6.105469 -8.941406 "/></g></g></g><g fill="#ffffff" fill-opacity="1"><g transform="translate(118.484346, 44.625)"><g><path d="M 10.242188 0.382812 C 15.171875 0.382812 18.902344 -2.605469 19.667969 -7.152344 L 14.433594 -7.152344 C 13.792969 -5.464844 12.289062 -4.394531 10.347656 -4.394531 C 7.84375 -4.394531 6.105469 -6.257812 6.105469 -8.941406 C 6.105469 -11.648438 7.867188 -13.488281 10.398438 -13.488281 C 12.261719 -13.488281 13.820312 -12.441406 14.355469 -10.832031 L 19.566406 -10.832031 C 18.648438 -15.351562 14.96875 -18.265625 10.191406 -18.265625 C 4.675781 -18.265625 0.867188 -14.457031 0.867188 -8.941406 C 0.867188 -3.421875 4.675781 0.382812 10.242188 0.382812 Z M 10.242188 0.382812 "/></g></g></g><g fill="#ffffff" fill-opacity="1"><g transform="translate(141.007342, 44.625)"><g><path d="M 1.890625 0 L 7.050781 0 L 7.050781 -17.882812 L 1.890625 -17.882812 Z M 1.890625 0 "/></g></g></g><g fill="#ffffff" fill-opacity="1"><g transform="translate(151.98844, 44.625)"><g><path d="M 1.890625 0 L 14.433594 0 L 14.433594 -4.214844 L 7 -4.214844 L 7 -6.972656 L 13.460938 -6.972656 L 13.460938 -11.113281 L 7 -11.113281 L 7 -13.71875 L 14.152344 -13.71875 L 14.152344 -17.882812 L 1.890625 -17.882812 Z M 1.890625 0 "/></g></g></g><g fill="#ffffff" fill-opacity="1"><g transform="translate(169.608678, 44.625)"><g><path d="M 6.15625 0 L 11.289062 0 L 11.289062 -13.105469 L 16.730469 -13.105469 L 16.730469 -17.882812 L 0.714844 -17.882812 L 0.714844 -13.105469 L 6.15625 -13.105469 Z M 6.15625 0 "/></g></g></g><g fill="#ffffff" fill-opacity="1"><g transform="translate(189.092988, 44.625)"><g><path d="M 0.128906 0 L 5.59375 0 L 6.566406 -2.527344 L 12.671875 -2.527344 L 13.640625 0 L 19.132812 0 L 12.183594 -17.882812 L 7.074219 -17.882812 Z M 7.636719 -6.308594 L 9.628906 -11.851562 L 11.621094 -6.308594 Z M 7.636719 -6.308594 "/></g></g></g><g fill="#ffffff" fill-opacity="1"><g transform="translate(210.390293, 44.625)"><g><path d="M 8.300781 0.382812 C 12.746094 0.382812 15.378906 -1.710938 15.378906 -5.238281 C 15.378906 -8.199219 13.460938 -9.9375 9.121094 -10.90625 C 6.820312 -11.417969 5.976562 -11.980469 5.976562 -12.898438 C 5.976562 -13.769531 6.742188 -14.304688 7.945312 -14.304688 C 9.375 -14.304688 10.191406 -13.5625 10.191406 -12.210938 L 15.046875 -12.210938 C 15.046875 -15.890625 12.234375 -18.265625 7.84375 -18.265625 C 3.628906 -18.265625 1.023438 -16.171875 1.023438 -12.796875 C 1.023438 -9.785156 2.988281 -7.917969 7.023438 -7.152344 C 9.195312 -6.71875 10.242188 -6.054688 10.242188 -5.03125 C 10.242188 -4.136719 9.476562 -3.628906 8.226562 -3.628906 C 6.742188 -3.628906 5.875 -4.417969 5.875 -5.796875 L 0.894531 -5.796875 C 0.894531 -1.941406 3.652344 0.382812 8.300781 0.382812 Z M 8.300781 0.382812 "/></g></g></g><g fill="#ffffff" fill-opacity="1"><g transform="translate(228.751055, 44.625)"><g/></g></g><g fill="#ffffff" fill-opacity="1"><g transform="translate(236.693472, 44.625)"><g><path d="M 0.128906 0 L 5.59375 0 L 6.566406 -2.527344 L 12.671875 -2.527344 L 13.640625 0 L 19.132812 0 L 12.183594 -17.882812 L 7.074219 -17.882812 Z M 7.636719 -6.308594 L 9.628906 -11.851562 L 11.621094 -6.308594 Z M 7.636719 -6.308594 "/></g></g></g><g fill="#ffffff" fill-opacity="1"><g transform="translate(257.990777, 44.625)"><g><path d="M 1.890625 0 L 7.050781 0 L 7.050781 -5.082031 L 8.992188 -5.082031 L 11.546875 0 L 17.394531 0 L 14.101562 -6.027344 C 15.992188 -7.074219 17.0625 -8.964844 17.0625 -11.46875 C 17.0625 -15.429688 14.382812 -17.882812 10.039062 -17.882812 L 1.890625 -17.882812 Z M 6.949219 -9.195312 L 6.949219 -13.667969 L 9.347656 -13.667969 C 10.984375 -13.667969 11.878906 -12.875 11.878906 -11.445312 C 11.878906 -10.011719 10.984375 -9.195312 9.347656 -9.195312 Z M 6.949219 -9.195312 "/></g></g></g><g fill="#ffffff" fill-opacity="1"><g transform="translate(278.4199, 44.625)"><g><path d="M 10.242188 0.382812 C 15.171875 0.382812 18.902344 -2.605469 19.667969 -7.152344 L 14.433594 -7.152344 C 13.792969 -5.464844 12.289062 -4.394531 10.347656 -4.394531 C 7.84375 -4.394531 6.105469 -6.257812 6.105469 -8.941406 C 6.105469 -11.648438 7.867188 -13.488281 10.398438 -13.488281 C 12.261719 -13.488281 13.820312 -12.441406 14.355469 -10.832031 L 19.566406 -10.832031 C 18.648438 -15.351562 14.96875 -18.265625 10.191406 -18.265625 C 4.675781 -18.265625 0.867188 -14.457031 0.867188 -8.941406 C 0.867188 -3.421875 4.675781 0.382812 10.242188 0.382812 Z M 10.242188 0.382812 "/></g></g></g><g fill="#ffffff" fill-opacity="1"><g transform="translate(300.942901, 44.625)"><g><path d="M 0.128906 0 L 5.59375 0 L 6.566406 -2.527344 L 12.671875 -2.527344 L 13.640625 0 L 19.132812 0 L 12.183594 -17.882812 L 7.074219 -17.882812 Z M 7.636719 -6.308594 L 9.628906 -11.851562 L 11.621094 -6.308594 Z M 7.636719 -6.308594 "/></g></g></g><g fill="#ffffff" fill-opacity="1"><g transform="translate(322.240218, 44.625)"><g><path d="M 1.890625 0 L 7 0 L 7 -9.121094 L 13.792969 0 L 17.984375 0 L 17.984375 -17.882812 L 12.898438 -17.882812 L 12.898438 -8.8125 L 6.105469 -17.882812 L 1.890625 -17.882812 Z M 1.890625 0 "/></g></g></g><g fill="#ffffff" fill-opacity="1"><g transform="translate(344.175909, 44.625)"><g><path d="M 0.128906 0 L 5.59375 0 L 6.566406 -2.527344 L 12.671875 -2.527344 L 13.640625 0 L 19.132812 0 L 12.183594 -17.882812 L 7.074219 -17.882812 Z M 7.636719 -6.308594 L 9.628906 -11.851562 L 11.621094 -6.308594 Z M 7.636719 -6.308594 "/></g></g></g></svg>